<svg xmlns="http://www.w3.org/2000/svg" xmlns:xlink="http://www.w3.org/1999/xlink">
    <symbol id="logo-dark" viewBox="0 0 70 33">
        <path d="M2.64358 0H0V19.0926H2.64358V12.0094C2.64358 10.8111 2.94163 9.86583 3.53774 9.20012C4.13384 8.53441 4.95024 8.18824 5.96102 8.18824C6.82926 8.18824 7.55495 8.50778 8.13809 9.12024C8.72123 9.74601 9.01929 10.5315 9.01929 11.4769V19.1059H11.6758V11.4769C11.6758 9.71938 11.1964 8.3347 10.2374 7.29619C9.27846 6.25768 8.02146 5.73843 6.49233 5.73843C6.05173 5.73843 5.61114 5.79168 5.1835 5.91151C4.7429 6.03134 4.39301 6.16448 4.10792 6.31094C3.82283 6.45739 3.5507 6.61717 3.30448 6.80356C3.05826 6.98996 2.8898 7.12311 2.81205 7.20299C2.73429 7.28288 2.6695 7.33613 2.64358 7.37608V0Z"
              fill="#F0145A"/>
        <path d="M17.5856 0H14.8604V19.0767H17.5856V0Z" fill="white"/>
        <path d="M33.6598 13.4896L33.796 12.127C33.796 10.3011 33.1965 8.77493 31.9701 7.54857C30.7438 6.32221 29.2176 5.72266 27.3917 5.72266C25.5658 5.72266 23.9851 6.37672 22.677 7.68483C21.3689 8.99295 20.7148 10.5463 20.7148 12.3995C20.7148 14.3072 21.3962 15.9423 22.7315 17.305C24.0669 18.6676 25.6748 19.3489 27.528 19.3489C28.2365 19.3489 28.8906 19.2399 29.5446 19.0491C30.1987 18.8311 30.7438 18.6131 31.1253 18.3951C31.5341 18.1498 31.9429 17.8773 32.2971 17.5775C32.6514 17.2777 32.8967 17.0597 33.0057 16.9234C33.1147 16.7872 33.1965 16.7054 33.251 16.6236L31.4796 14.8522L31.0708 15.37C30.7983 15.6971 30.335 16.0241 29.6809 16.3784C28.9996 16.7327 28.291 16.8962 27.528 16.8962C26.4651 16.8962 25.5658 16.5691 24.8027 15.8878C24.0396 15.2065 23.5764 14.4162 23.4401 13.4896H33.6598ZM27.3917 8.03912C28.4 8.03912 29.2176 8.33889 29.8989 8.9112C30.553 9.51075 30.9618 10.2466 31.1253 11.1732H23.5491C23.7944 10.2466 24.2304 9.51075 24.9117 8.9112C25.5658 8.33889 26.4106 8.03912 27.3917 8.03912Z"
              fill="white"/>
        <path d="M46.3695 18.286C46.3695 19.4852 46.0153 20.4662 45.2794 21.2293C44.5709 21.9651 43.6715 22.3467 42.5542 22.3467C42.0637 22.3467 41.5731 22.2649 41.1098 22.1286C40.6465 21.9924 40.2922 21.8289 39.9925 21.6381C39.6927 21.4473 39.4202 21.2566 39.1476 21.0113C38.9024 20.766 38.7389 20.6025 38.6571 20.5207C38.5753 20.439 38.5208 20.3572 38.4663 20.3027L36.6949 22.0741L36.9129 22.3467C37.0492 22.5374 37.2945 22.7827 37.6215 23.0552C37.9485 23.3005 38.3301 23.573 38.7661 23.8455C39.2021 24.0908 39.7472 24.3088 40.4285 24.4996C41.1098 24.6904 41.8184 24.7994 42.5542 24.7994C44.4074 24.7994 45.9335 24.1726 47.2144 22.919C48.468 21.6381 49.0948 20.112 49.0948 18.2588V5.99518H46.3695V7.3578L45.9062 6.94902C45.6065 6.67649 45.1432 6.40397 44.4891 6.13144C43.8351 5.85892 43.1265 5.72266 42.4179 5.72266C40.7555 5.72266 39.3384 6.34946 38.112 7.63033C36.8857 8.9112 36.2861 10.4373 36.2861 12.2632C36.2861 14.0892 36.8857 15.6153 38.112 16.8962C39.3384 18.177 40.7555 18.8038 42.4179 18.8038C42.8812 18.8038 43.3173 18.7493 43.7806 18.6403C44.2166 18.5041 44.5709 18.3678 44.8707 18.2315C45.1704 18.0953 45.443 17.9318 45.6882 17.741C45.9335 17.5502 46.1243 17.414 46.1788 17.3595L46.3695 17.1687V18.286ZM39.0114 12.2632C39.0114 11.1186 39.3657 10.1648 40.1015 9.37449C40.8373 8.58417 41.7094 8.17538 42.6905 8.17538C43.6715 8.17538 44.5436 8.58417 45.2794 9.37449C45.988 10.1648 46.3695 11.1186 46.3695 12.2632C46.3695 13.4079 45.988 14.3617 45.2794 15.152C44.5436 15.9423 43.6715 16.3511 42.6905 16.3511C41.7094 16.3511 40.8373 15.9423 40.1015 15.152C39.3657 14.3617 39.0114 13.4079 39.0114 12.2632Z"
              fill="white"/>
        <path d="M63.3195 19.0764V10.6281C63.3195 9.23823 62.8017 8.06637 61.7934 7.13979C60.7851 6.18595 59.4769 5.72266 57.869 5.72266C57.2422 5.72266 56.6154 5.80441 56.0159 5.96793C55.4163 6.1587 54.9258 6.34946 54.5715 6.56748C54.2172 6.7855 53.8629 7.03078 53.5359 7.33055C53.2089 7.60308 53.0181 7.79384 52.9091 7.90285C52.8273 8.01186 52.7456 8.09362 52.6911 8.17538L54.4625 9.94679L54.8168 9.4835C55.0348 9.18372 55.4163 8.9112 55.9886 8.61142C56.5609 8.31164 57.1877 8.17538 57.869 8.17538C58.6594 8.17538 59.3134 8.42065 59.8312 8.88394C60.349 9.34724 60.5943 9.94679 60.5943 10.6281L55.8251 11.4457C54.6533 11.6364 53.6994 12.0997 53.0454 12.8356C52.364 13.5714 52.0098 14.4707 52.0098 15.5335C52.0098 16.5419 52.4458 17.414 53.3179 18.177C54.2172 18.9674 55.3073 19.3489 56.6427 19.3489C57.106 19.3489 57.542 19.2944 57.9781 19.1581C58.4413 19.0491 58.7956 18.9129 59.0954 18.7766C59.3952 18.6403 59.6677 18.4768 59.913 18.286C60.1582 18.0953 60.3218 17.959 60.4308 17.9045C60.5125 17.8228 60.567 17.741 60.5943 17.7137V19.0764H63.3195ZM57.0515 16.8962C56.3429 16.8962 55.7706 16.7327 55.3618 16.4056C54.9258 16.0786 54.735 15.6971 54.735 15.261C54.735 14.7977 54.8713 14.3889 55.1711 14.0892C55.4708 13.7894 55.8796 13.5714 56.3702 13.4896L60.5943 12.8083V13.0808C60.5943 14.3072 60.2945 15.2338 59.6677 15.9151C59.0409 16.5691 58.1688 16.8962 57.0515 16.8962Z"
              fill="white"/>
        <path d="M69.3337 0H66.6084V19.0767H69.3337V0Z" fill="white"/>
        <path d="M0 28.3308H0.852878V31.3211H2.70078V32.016H0V28.3308Z" fill="white"/>
        <path d="M8.26752 31.2263H6.5565L6.23009 32.016H5.35615L6.99873 28.3308H7.84108L9.48893 32.016H8.59393L8.26752 31.2263ZM7.99902 30.5788L7.41464 29.1678L6.83026 30.5788H7.99902Z"
              fill="white"/>
        <path d="M17.8731 28.3308L16.6675 32.016H15.7515L14.9407 29.5206L14.1036 32.016H13.1928L11.982 28.3308H12.8664L13.6982 30.921L14.5669 28.3308H15.3566L16.199 30.942L17.0571 28.3308H17.8731Z"
              fill="white"/>
        <path d="M26.9457 32.0792C26.5702 32.0792 26.2297 31.9985 25.9244 31.837C25.6225 31.6721 25.3838 31.4457 25.2084 31.1579C25.0364 30.8666 24.9504 30.5384 24.9504 30.1734C24.9504 29.8084 25.0364 29.482 25.2084 29.1942C25.3838 28.9028 25.6225 28.6765 25.9244 28.515C26.2297 28.3501 26.5719 28.2676 26.951 28.2676C27.2704 28.2676 27.5582 28.3237 27.8144 28.436C28.0741 28.5484 28.2917 28.7098 28.4672 28.9204L27.9197 29.4258C27.6705 29.138 27.3616 28.9941 26.9931 28.9941C26.7649 28.9941 26.5614 29.045 26.3824 29.1468C26.2034 29.2451 26.063 29.3837 25.9612 29.5627C25.8629 29.7417 25.8138 29.9453 25.8138 30.1734C25.8138 30.4015 25.8629 30.6051 25.9612 30.7841C26.063 30.9631 26.2034 31.1035 26.3824 31.2053C26.5614 31.3035 26.7649 31.3527 26.9931 31.3527C27.3616 31.3527 27.6705 31.207 27.9197 30.9157L28.4672 31.4211C28.2917 31.6352 28.0741 31.7984 27.8144 31.9107C27.5547 32.0231 27.2651 32.0792 26.9457 32.0792Z"
              fill="white"/>
        <path d="M33.3831 32.0792C33.0005 32.0792 32.6548 31.9967 32.3459 31.8318C32.0406 31.6668 31.8002 31.4404 31.6247 31.1526C31.4527 30.8613 31.3667 30.5349 31.3667 30.1734C31.3667 29.8119 31.4527 29.4872 31.6247 29.1994C31.8002 28.9081 32.0406 28.68 32.3459 28.515C32.6548 28.3501 33.0005 28.2676 33.3831 28.2676C33.7657 28.2676 34.1096 28.3501 34.415 28.515C34.7203 28.68 34.9607 28.9081 35.1362 29.1994C35.3117 29.4872 35.3995 29.8119 35.3995 30.1734C35.3995 30.5349 35.3117 30.8613 35.1362 31.1526C34.9607 31.4404 34.7203 31.6668 34.415 31.8318C34.1096 31.9967 33.7657 32.0792 33.3831 32.0792ZM33.3831 31.3527C33.6007 31.3527 33.7972 31.3035 33.9727 31.2053C34.1482 31.1035 34.2851 30.9631 34.3834 30.7841C34.4852 30.6051 34.5361 30.4015 34.5361 30.1734C34.5361 29.9453 34.4852 29.7417 34.3834 29.5627C34.2851 29.3837 34.1482 29.2451 33.9727 29.1468C33.7972 29.045 33.6007 28.9941 33.3831 28.9941C33.1655 28.9941 32.9689 29.045 32.7934 29.1468C32.618 29.2451 32.4793 29.3837 32.3775 29.5627C32.2793 29.7417 32.2301 29.9453 32.2301 30.1734C32.2301 30.4015 32.2793 30.6051 32.3775 30.7841C32.4793 30.9631 32.618 31.1035 32.7934 31.2053C32.9689 31.3035 33.1655 31.3527 33.3831 31.3527Z"
              fill="white"/>
        <path d="M42.0264 32.016L42.0211 29.8049L40.9366 31.6264H40.5523L39.473 29.8522V32.016H38.6728V28.3308H39.3782L40.7576 30.6209L42.1159 28.3308H42.8161L42.8266 32.016H42.0264Z"
              fill="white"/>
        <path d="M47.9285 28.3308C48.2549 28.3308 48.5374 28.3852 48.7761 28.494C49.0183 28.6028 49.2043 28.7572 49.3342 28.9573C49.464 29.1573 49.529 29.3942 49.529 29.668C49.529 29.9382 49.464 30.1751 49.3342 30.3787C49.2043 30.5788 49.0183 30.7332 48.7761 30.842C48.5374 30.9473 48.2549 30.9999 47.9285 30.9999H47.1862V32.016H46.3333V28.3308H47.9285ZM47.8811 30.305C48.1373 30.305 48.3321 30.2506 48.4655 30.1418C48.5989 30.0295 48.6656 29.8716 48.6656 29.668C48.6656 29.4609 48.5989 29.303 48.4655 29.1942C48.3321 29.0818 48.1373 29.0257 47.8811 29.0257H47.1862V30.305H47.8811Z"
              fill="white"/>
        <path d="M55.0121 31.2263H53.3011L52.9747 32.016H52.1008L53.7433 28.3308H54.5857L56.2335 32.016H55.3385L55.0121 31.2263ZM54.7436 30.5788L54.1592 29.1678L53.5749 30.5788H54.7436Z"
              fill="white"/>
        <path d="M62.6281 28.3308V32.016H61.9279L60.0906 29.7785V32.016H59.2482V28.3308H59.9537L61.7858 30.5682V28.3308H62.6281Z"
              fill="white"/>
        <path d="M67.9013 30.7104V32.016H67.0485V30.6999L65.6217 28.3308H66.5273L67.5117 29.9681L68.4963 28.3308H69.3333L67.9013 30.7104Z"
              fill="white"/>
    </symbol>
    <symbol id="logo-text" viewBox="0 0 130 7">
        <path d="M0 0.118455H1.59915V5.72534H5.06396V7.02835H0V0.118455Z" fill="white"/>
        <path d="M15.5016 5.54766H12.2934L11.6814 7.02835H10.0428L13.1226 0.118455H14.702L17.7917 7.02835H16.1136L15.5016 5.54766ZM14.9982 4.33349L13.9025 1.68799L12.8067 4.33349H14.9982Z"
              fill="white"/>
        <path d="M33.5121 0.118455L31.2516 7.02835H29.534L28.0138 2.34936L26.4443 7.02835H24.7366L22.4662 0.118455H24.1245L25.6842 4.97512L27.313 0.118455H28.7937L30.3731 5.01461L31.9821 0.118455H33.5121Z"
              fill="white"/>
        <path d="M50.5232 7.1468C49.819 7.1468 49.1807 6.99545 48.6082 6.69273C48.0422 6.38343 47.5947 5.95896 47.2657 5.41933C46.9432 4.87312 46.782 4.25781 46.782 3.5734C46.782 2.88899 46.9432 2.27697 47.2657 1.73734C47.5947 1.19113 48.0422 0.766669 48.6082 0.46395C49.1807 0.15465 49.8223 0 50.5331 0C51.1319 0 51.6716 0.105294 52.152 0.315881C52.6389 0.526468 53.047 0.829187 53.376 1.22404L52.3494 2.17168C51.8821 1.63205 51.303 1.36224 50.612 1.36224C50.1843 1.36224 49.8026 1.45766 49.467 1.6485C49.1313 1.83277 48.8681 2.09271 48.6773 2.42833C48.493 2.76396 48.4009 3.14565 48.4009 3.5734C48.4009 4.00116 48.493 4.38285 48.6773 4.71847C48.8681 5.05409 49.1313 5.31733 49.467 5.50817C49.8026 5.69244 50.1843 5.78457 50.612 5.78457C51.303 5.78457 51.8821 5.51146 52.3494 4.96525L53.376 5.9129C53.047 6.31433 52.6389 6.62034 52.152 6.83092C51.665 7.04151 51.1221 7.1468 50.5232 7.1468Z"
              fill="white"/>
        <path d="M62.5933 7.1468C61.876 7.1468 61.2278 6.99215 60.6487 6.68285C60.0761 6.37355 59.6253 5.94909 59.2963 5.40946C58.9738 4.86325 58.8126 4.25123 58.8126 3.5734C58.8126 2.89558 58.9738 2.28685 59.2963 1.74722C59.6253 1.20101 60.0761 0.77325 60.6487 0.46395C61.2278 0.15465 61.876 0 62.5933 0C63.3106 0 63.9555 0.15465 64.5281 0.46395C65.1006 0.77325 65.5514 1.20101 65.8804 1.74722C66.2095 2.28685 66.374 2.89558 66.374 3.5734C66.374 4.25123 66.2095 4.86325 65.8804 5.40946C65.5514 5.94909 65.1006 6.37355 64.5281 6.68285C63.9555 6.99215 63.3106 7.1468 62.5933 7.1468ZM62.5933 5.78457C63.0013 5.78457 63.3698 5.69244 63.6989 5.50817C64.0279 5.31733 64.2846 5.05409 64.4688 4.71847C64.6597 4.38285 64.7551 4.00116 64.7551 3.5734C64.7551 3.14565 64.6597 2.76396 64.4688 2.42833C64.2846 2.09271 64.0279 1.83277 63.6989 1.6485C63.3698 1.45766 63.0013 1.36224 62.5933 1.36224C62.1853 1.36224 61.8168 1.45766 61.4877 1.6485C61.1587 1.83277 60.8987 2.09271 60.7079 2.42833C60.5236 2.76396 60.4315 3.14565 60.4315 3.5734C60.4315 4.00116 60.5236 4.38285 60.7079 4.71847C60.8987 5.05409 61.1587 5.31733 61.4877 5.50817C61.8168 5.69244 62.1853 5.78457 62.5933 5.78457Z"
              fill="white"/>
        <path d="M78.7995 7.02835L78.7896 2.88241L76.7561 6.29788H76.0355L74.0119 2.97125V7.02835H72.5115V0.118455H73.8342L76.4205 4.41246L78.9673 0.118455H80.2802L80.2999 7.02835H78.7995Z"
              fill="white"/>
        <path d="M89.8659 0.118455C90.478 0.118455 91.0077 0.220458 91.4552 0.424465C91.9093 0.628471 92.2581 0.918029 92.5016 1.29314C92.7451 1.66825 92.8668 2.11245 92.8668 2.62576C92.8668 3.13249 92.7451 3.57669 92.5016 3.95838C92.2581 4.33349 91.9093 4.62305 91.4552 4.82705C91.0077 5.02448 90.478 5.12319 89.8659 5.12319H88.4741V7.02835H86.8749V0.118455H89.8659ZM89.7771 3.82018C90.2575 3.82018 90.6227 3.71818 90.8728 3.51418C91.1229 3.30359 91.2479 3.00745 91.2479 2.62576C91.2479 2.23749 91.1229 1.94135 90.8728 1.73734C90.6227 1.52676 90.2575 1.42146 89.7771 1.42146H88.4741V3.82018H89.7771Z"
              fill="white"/>
        <path d="M103.148 5.54766H99.9396L99.3276 7.02835H97.6889L100.769 0.118455H102.348L105.438 7.02835H103.76L103.148 5.54766ZM102.644 4.33349L101.549 1.68799L100.453 4.33349H102.644Z"
              fill="white"/>
        <path d="M117.428 0.118455V7.02835H116.115L112.67 2.83306V7.02835H111.09V0.118455H112.413L115.848 4.31375V0.118455H117.428Z"
              fill="white"/>
        <path d="M127.315 4.58027V7.02835H125.716V4.56053L123.041 0.118455H124.739L126.585 3.18842L128.43 0.118455H130L127.315 4.58027Z"
              fill="white"/>
    </symbol>
    <symbol id="logo-light" viewBox="0 0 130 61">
        <path d="M4.95672 0H0V35.7986H4.95672V22.5177C4.95672 20.2709 5.51557 18.4984 6.63326 17.2502C7.75095 16.002 9.2817 15.353 11.1769 15.353C12.8049 15.353 14.1655 15.9521 15.2589 17.1004C16.3523 18.2738 16.9112 19.7466 16.9112 21.5191V35.8236H21.8922V21.5191C21.8922 18.2238 20.9932 15.6276 19.1951 13.6804C17.3971 11.7332 15.0402 10.7596 12.1731 10.7596C11.347 10.7596 10.5209 10.8594 9.71906 11.0841C8.89294 11.3088 8.2369 11.5584 7.70235 11.833C7.16781 12.1076 6.65756 12.4072 6.1959 12.7567C5.73424 13.1062 5.41838 13.3558 5.27259 13.5056C5.1268 13.6554 5.00532 13.7552 4.95672 13.8301V0Z"
              fill="#F0145A"/>
        <path d="M32.9726 0H27.8628V35.7689H32.9726V0Z" fill="#323264"/>
        <path d="M63.1114 25.293L63.3669 22.7381C63.3669 19.3145 62.2428 16.453 59.9433 14.1536C57.6439 11.8541 54.7824 10.73 51.3588 10.73C47.9352 10.73 44.9715 11.9563 42.5188 14.4091C40.0661 16.8618 38.8397 19.7744 38.8397 23.2491C38.8397 26.826 40.1172 29.8919 42.621 32.4468C45.1248 35.0017 48.1396 36.2792 51.6143 36.2792C52.9429 36.2792 54.1692 36.0748 55.3956 35.7171C56.6219 35.3083 57.6439 34.8995 58.3593 34.4907C59.1258 34.0308 59.8922 33.5199 60.5565 32.9578C61.2208 32.3957 61.6807 31.9869 61.8851 31.7314C62.0895 31.4759 62.2428 31.3226 62.345 31.1693L59.0236 27.8479L58.2571 28.8188C57.7461 29.432 56.8774 30.0452 55.6511 30.7095C54.3736 31.3737 53.0451 31.6803 51.6143 31.6803C49.6215 31.6803 47.9352 31.0671 46.5045 29.7897C45.0737 28.5122 44.205 27.0304 43.9495 25.293H63.1114ZM51.3588 15.0733C53.2495 15.0733 54.7824 15.6354 56.0599 16.7085C57.2862 17.8327 58.0527 19.2123 58.3593 20.9497H44.1539C44.6138 19.2123 45.4314 17.8327 46.7089 16.7085C47.9352 15.6354 49.5193 15.0733 51.3588 15.0733Z"
              fill="#323264"/>
        <path d="M86.9429 34.2863C86.9429 36.5347 86.2786 38.3742 84.8989 39.805C83.5704 41.1846 81.8841 41.9 79.7891 41.9C78.8693 41.9 77.9496 41.7467 77.0809 41.4912C76.2122 41.2357 75.5479 40.9291 74.9859 40.5714C74.4238 40.2137 73.9128 39.856 73.4018 39.3962C72.9419 38.9363 72.6353 38.6297 72.482 38.4764C72.3287 38.3231 72.2265 38.1698 72.1244 38.0676L68.803 41.389L69.2117 41.9C69.4672 42.2577 69.9271 42.7176 70.5403 43.2285C71.1535 43.6884 71.8689 44.1994 72.6864 44.7104C73.504 45.1703 74.526 45.5791 75.8034 45.9368C77.0809 46.2944 78.4094 46.4988 79.7891 46.4988C83.2638 46.4988 86.1253 45.3236 88.5269 42.9731C90.8774 40.5714 92.0527 37.7099 92.0527 34.2352V11.241H86.9429V13.7959L86.0742 13.0294C85.5121 12.5184 84.6434 12.0074 83.4171 11.4965C82.1907 10.9855 80.8622 10.73 79.5336 10.73C76.4166 10.73 73.7595 11.9052 71.4601 14.3069C69.1606 16.7085 68.0365 19.57 68.0365 22.9936C68.0365 26.4172 69.1606 29.2787 71.4601 31.6803C73.7595 34.0819 76.4166 35.2572 79.5336 35.2572C80.4023 35.2572 81.2199 35.155 82.0885 34.9506C82.9061 34.6951 83.5704 34.4396 84.1325 34.1841C84.6945 33.9286 85.2055 33.622 85.6654 33.2644C86.1253 32.9067 86.483 32.6512 86.5852 32.549L86.9429 32.1913V34.2863ZM73.1463 22.9936C73.1463 20.8475 73.8106 19.059 75.1903 17.5772C76.5699 16.0953 78.2051 15.3288 80.0446 15.3288C81.8841 15.3288 83.5193 16.0953 84.8989 17.5772C86.2275 19.059 86.9429 20.8475 86.9429 22.9936C86.9429 25.1397 86.2275 26.9282 84.8989 28.41C83.5193 29.8919 81.8841 30.6583 80.0446 30.6583C78.2051 30.6583 76.5699 29.8919 75.1903 28.41C73.8106 26.9282 73.1463 25.1397 73.1463 22.9936Z"
              fill="#323264"/>
        <path d="M118.724 35.7682V19.9277C118.724 17.3217 117.753 15.1244 115.863 13.3871C113.972 11.5987 111.519 10.73 108.504 10.73C107.329 10.73 106.154 10.8833 105.03 11.1899C103.906 11.5476 102.986 11.9052 102.321 12.314C101.657 12.7228 100.993 13.1827 100.38 13.7448C99.7666 14.2558 99.4089 14.6135 99.2045 14.8179C99.0512 15.0222 98.8979 15.1755 98.7957 15.3288L102.117 18.6502L102.781 17.7816C103.19 17.2195 103.906 16.7085 104.979 16.1464C106.052 15.5843 107.227 15.3288 108.504 15.3288C109.986 15.3288 111.213 15.7887 112.183 16.6574C113.154 17.5261 113.614 18.6502 113.614 19.9277L104.672 21.4606C102.475 21.8183 100.686 22.687 99.46 24.0667C98.1825 25.4463 97.5182 27.1326 97.5182 29.1254C97.5182 31.016 98.3358 32.6512 99.971 34.0819C101.657 35.5638 103.701 36.2792 106.205 36.2792C107.074 36.2792 107.891 36.177 108.709 35.9215C109.577 35.7171 110.242 35.4616 110.804 35.2061C111.366 34.9506 111.877 34.644 112.337 34.2863C112.797 33.9287 113.103 33.6732 113.308 33.571C113.461 33.4177 113.563 33.2644 113.614 33.2133V35.7682H118.724ZM106.971 31.6803C105.643 31.6803 104.57 31.3737 103.803 30.7606C102.986 30.1474 102.628 29.432 102.628 28.6144C102.628 27.7457 102.884 26.9793 103.446 26.4172C104.008 25.8551 104.774 25.4463 105.694 25.293L113.614 24.0156V24.5265C113.614 26.826 113.052 28.5633 111.877 29.8408C110.702 31.0671 109.066 31.6803 106.971 31.6803Z"
              fill="#323264"/>
        <path d="M130 0H124.89V35.7689H130V0Z" fill="#323264"/>
        <path d="M0 53.1185H1.59915V58.7253H5.06396V60.0283H0V53.1185Z" fill="#323264"/>
        <path d="M15.5016 58.5477H12.2934L11.6814 60.0283H10.0428L13.1226 53.1185H14.702L17.7917 60.0283H16.1136L15.5016 58.5477ZM14.9982 57.3335L13.9025 54.688L12.8067 57.3335H14.9982Z"
              fill="#323264"/>
        <path d="M33.5121 53.1185L31.2516 60.0283H29.534L28.0138 55.3494L26.4443 60.0283H24.7366L22.4662 53.1185H24.1245L25.6842 57.9751L27.313 53.1185H28.7937L30.3731 58.0146L31.9821 53.1185H33.5121Z"
              fill="#323264"/>
        <path d="M50.5232 60.1468C49.819 60.1468 49.1807 59.9954 48.6082 59.6927C48.0422 59.3834 47.5947 58.959 47.2657 58.4193C46.9432 57.8731 46.782 57.2578 46.782 56.5734C46.782 55.889 46.9432 55.277 47.2657 54.7373C47.5947 54.1911 48.0422 53.7667 48.6082 53.464C49.1807 53.1547 49.8223 53 50.5331 53C51.1319 53 51.6716 53.1053 52.152 53.3159C52.6389 53.5265 53.047 53.8292 53.376 54.224L52.3494 55.1717C51.8821 54.6321 51.303 54.3622 50.612 54.3622C50.1843 54.3622 49.8026 54.4577 49.467 54.6485C49.1313 54.8328 48.8681 55.0927 48.6773 55.4283C48.493 55.764 48.4009 56.1456 48.4009 56.5734C48.4009 57.0012 48.493 57.3828 48.6773 57.7185C48.8681 58.0541 49.1313 58.3173 49.467 58.5082C49.8026 58.6924 50.1843 58.7846 50.612 58.7846C51.303 58.7846 51.8821 58.5115 52.3494 57.9653L53.376 58.9129C53.047 59.3143 52.6389 59.6203 52.152 59.8309C51.665 60.0415 51.1221 60.1468 50.5232 60.1468Z"
              fill="#323264"/>
        <path d="M62.5933 60.1468C61.876 60.1468 61.2278 59.9922 60.6487 59.6829C60.0761 59.3736 59.6253 58.9491 59.2963 58.4095C58.9738 57.8632 58.8126 57.2512 58.8126 56.5734C58.8126 55.8956 58.9738 55.2868 59.2963 54.7472C59.6253 54.201 60.0761 53.7733 60.6487 53.464C61.2278 53.1547 61.876 53 62.5933 53C63.3106 53 63.9555 53.1547 64.5281 53.464C65.1006 53.7733 65.5514 54.201 65.8804 54.7472C66.2095 55.2868 66.374 55.8956 66.374 56.5734C66.374 57.2512 66.2095 57.8632 65.8804 58.4095C65.5514 58.9491 65.1006 59.3736 64.5281 59.6829C63.9555 59.9922 63.3106 60.1468 62.5933 60.1468ZM62.5933 58.7846C63.0013 58.7846 63.3698 58.6924 63.6989 58.5082C64.0279 58.3173 64.2846 58.0541 64.4688 57.7185C64.6597 57.3828 64.7551 57.0012 64.7551 56.5734C64.7551 56.1456 64.6597 55.764 64.4688 55.4283C64.2846 55.0927 64.0279 54.8328 63.6989 54.6485C63.3698 54.4577 63.0013 54.3622 62.5933 54.3622C62.1853 54.3622 61.8168 54.4577 61.4877 54.6485C61.1587 54.8328 60.8987 55.0927 60.7079 55.4283C60.5236 55.764 60.4315 56.1456 60.4315 56.5734C60.4315 57.0012 60.5236 57.3828 60.7079 57.7185C60.8987 58.0541 61.1587 58.3173 61.4877 58.5082C61.8168 58.6924 62.1853 58.7846 62.5933 58.7846Z"
              fill="#323264"/>
        <path d="M78.7995 60.0283L78.7896 55.8824L76.7561 59.2979H76.0355L74.0119 55.9713V60.0283H72.5115V53.1185H73.8342L76.4205 57.4125L78.9673 53.1185H80.2802L80.2999 60.0283H78.7995Z"
              fill="#323264"/>
        <path d="M89.8659 53.1185C90.478 53.1185 91.0077 53.2205 91.4552 53.4245C91.9093 53.6285 92.2581 53.918 92.5016 54.2931C92.7451 54.6682 92.8668 55.1125 92.8668 55.6258C92.8668 56.1325 92.7451 56.5767 92.5016 56.9584C92.2581 57.3335 91.9093 57.623 91.4552 57.8271C91.0077 58.0245 90.478 58.1232 89.8659 58.1232H88.4741V60.0283H86.8749V53.1185H89.8659ZM89.7771 56.8202C90.2575 56.8202 90.6227 56.7182 90.8728 56.5142C91.1229 56.3036 91.2479 56.0074 91.2479 55.6258C91.2479 55.2375 91.1229 54.9414 90.8728 54.7373C90.6227 54.5268 90.2575 54.4215 89.7771 54.4215H88.4741V56.8202H89.7771Z"
              fill="#323264"/>
        <path d="M103.148 58.5477H99.9396L99.3276 60.0283H97.6889L100.769 53.1185H102.348L105.438 60.0283H103.76L103.148 58.5477ZM102.644 57.3335L101.549 54.688L100.453 57.3335H102.644Z"
              fill="#323264"/>
        <path d="M117.428 53.1185V60.0283H116.115L112.67 55.8331V60.0283H111.09V53.1185H112.413L115.848 57.3137V53.1185H117.428Z"
              fill="#323264"/>
        <path d="M127.315 57.5803V60.0283H125.716V57.5605L123.041 53.1185H124.739L126.585 56.1884L128.43 53.1185H130L127.315 57.5803Z"
              fill="#323264"/>
    </symbol>
    <symbol id="fb-icon" viewBox="0 0 24 25">
        <path id="Vector"
              d="M24 12.5733C24 5.90541 18.6274 0.5 12 0.5C5.37258 0.5 0 5.90541 0 12.5733C0 18.5995 4.38823 23.5943 10.125 24.5V16.0633H7.07813V12.5733H10.125V9.91343C10.125 6.88755 11.9165 5.21615 14.6576 5.21615C15.9705 5.21615 17.3438 5.45195 17.3438 5.45195V8.42313H15.8306C14.3399 8.42313 13.875 9.35379 13.875 10.3086V12.5733H17.2031L16.6711 16.0633H13.875V24.5C19.6118 23.5943 24 18.5995 24 12.5733Z"/>
    </symbol>
    <symbol id="fb-icon-light" viewBox="0 0 24 25">
        <path id="Vector"
              d="M24 12.5733C24 5.90541 18.6274 0.5 12 0.5C5.37258 0.5 0 5.90541 0 12.5733C0 18.5995 4.38823 23.5943 10.125 24.5V16.0633H7.07813V12.5733H10.125V9.91343C10.125 6.88755 11.9165 5.21615 14.6576 5.21615C15.9705 5.21615 17.3438 5.45195 17.3438 5.45195V8.42313H15.8306C14.3399 8.42313 13.875 9.35379 13.875 10.3086V12.5733H17.2031L16.6711 16.0633H13.875V24.5C19.6118 23.5943 24 18.5995 24 12.5733Z"/>
    </symbol>
    <symbol id="fb-icon-footer" viewBox="0 0 38 38">
        <path id="Vector"
              d="M38 19.1161C38 8.55857 29.4934 0 19 0C8.50658 0 0 8.55857 0 19.1161C0 28.6575 6.94803 36.5659 16.0312 38V24.6419H11.207V19.1161H16.0312V14.9046C16.0312 10.1136 18.8678 7.46723 23.2078 7.46723C25.2866 7.46723 27.4609 7.84059 27.4609 7.84059V12.545H25.0651C22.7048 12.545 21.9688 14.0185 21.9688 15.5302V19.1161H27.2383L26.3959 24.6419H21.9688V38C31.052 36.5659 38 28.6575 38 19.1161Z"/>
    </symbol>
    <symbol id="fb-slash" viewBox="0 0 21 47">
        <path id="Slash" fill-rule="evenodd" clip-rule="evenodd" d="M15.1752 0H21L5.82482 47H0L15.1752 0Z"
              fill="#F0145A"/>
    </symbol>
    <symbol id="scroll-down" viewBox="0 0 42 42">
        <circle id="Ellipse" opacity="0.5" cx="21" cy="21" r="20" stroke="currentColor" stroke-width="2" fill="none"/>
        <path id="Vector" d="M12 18L21 27L30 18" stroke="currentColor" stroke-width="2" fill="none"/>
    </symbol>
    <symbol>
        <svg id="flex-card-1" viewBox="0 0 64 64">
            <path id="Vector"
                  d="M23.7339 28.125C24.8379 28.125 25.7339 27.229 25.7339 26.125V18.325C25.7339 14.838 28.5709 12 32.0579 12C35.5449 12 38.3829 14.838 38.3829 18.325V26.125C38.3829 27.229 39.2779 28.125 40.3829 28.125C41.4869 28.125 42.3829 27.229 42.3829 26.125V18.325C42.3839 12.632 37.7519 8 32.0579 8C26.3659 8 21.7339 12.632 21.7339 18.325V26.125C21.7339 27.229 22.6299 28.125 23.7339 28.125Z"
                  fill="url(#paint0_linear_22728_10153)"/>
            <path id="Vector_2"
                  d="M55 23.6309H44.384V26.1249C44.384 28.3309 42.59 30.1249 40.384 30.1249C38.178 30.1249 36.384 28.3309 36.384 26.1249V23.6309H27.735V26.1249C27.735 28.3309 25.941 30.1249 23.735 30.1249C21.529 30.1249 19.735 28.3309 19.735 26.1249V23.6309H8.99997C8.44797 23.6309 8.10697 24.0659 8.23797 24.6019L15.236 53.0989C15.658 54.7009 17.344 55.9999 19 55.9999H45C46.658 55.9999 48.342 54.7009 48.766 53.0989L55.762 24.6019C55.893 24.0649 55.553 23.6309 55 23.6309Z"
                  fill="url(#paint1_linear_22728_10153)"/>
            <path id="Union"
                  d="M28.6001 34.4C28.6001 33.6265 29.2266 33 30.0001 33C30.7736 33 31.4001 33.6265 31.4001 34.4V41.35L31.4001 40C31.4001 39.2265 32.0266 38.6 32.8001 38.6C33.5736 38.6 34.2001 39.2265 34.2001 40V41.6764C34.2127 40.9141 34.8346 39.3 35.6 39.3C36.3731 39.3 36.9999 39.9268 37 40.7C37 40.7 37.0411 41.7411 37.1332 41.8033C37.3572 41.3285 37.8402 40 38.4 40C39.1732 40 39.8 40.6268 39.8 41.4V48.4C39.8 49.9463 38.5463 51.2 37 51.2H32.3198C30.8344 51.2 29.4099 50.6099 28.3599 49.5599L26.15 47.35L23 45.9402C23.0051 44.6033 24.0526 44.2 25.1 44.2C26.0023 44.2 26.8136 44.3407 28.6 45.25L28.6001 34.4Z"
                  fill="white"/>
        </svg>
    </symbol>
    <symbol>
        <svg id="flex-card-2" viewBox="0 0 64 64">
            <path fill-rule="evenodd" clip-rule="evenodd"
                  d="M53.4513 35.0762V52.3713C53.4513 55.4647 51.027 57.9997 48.0632 57.9997H15.9702C13.0064 57.9997 10.5822 55.4647 10.5822 52.3713V35.0762H27.2482V42.587L32.0167 45.7204L36.7852 42.587V35.0762H53.4513Z"
                  fill="url(#paint0_linear_22728_7137)"/>
            <path fill-rule="evenodd" clip-rule="evenodd"
                  d="M28.9185 35.0762V41.6847L32.0166 43.7202L35.1147 41.6847V35.0762H28.9185Z"
                  fill="url(#paint1_linear_22728_7137)"/>
            <path fill-rule="evenodd" clip-rule="evenodd"
                  d="M12.0734 15.1426H51.9599C53.8423 15.1426 55.3808 16.8507 55.3808 18.938V29.1912C55.3808 31.2786 53.8423 32.9867 51.9599 32.9867H36.314H27.7194H12.0734C10.191 32.9867 8.65259 31.2786 8.65259 29.1912V18.938C8.65259 16.8507 10.191 15.1426 12.0734 15.1426Z"
                  fill="url(#paint2_linear_22728_7137)"/>
            <path fill-rule="evenodd" clip-rule="evenodd"
                  d="M23.7119 5.95508H40.3214C41.8646 5.95508 43.1274 7.21788 43.1274 8.76103V13.1384H39.5699V10.5516C39.5699 9.8542 38.9998 9.2817 38.3024 9.2817H25.731C25.0336 9.2817 24.4635 9.8542 24.4635 10.5516V13.1384H20.9059V8.76103C20.9059 7.21788 22.1687 5.95508 23.7119 5.95508Z"
                  fill="url(#paint3_linear_22728_7137)"/>

        </svg>
    </symbol>
    <symbol>
        <svg id="grid-card-1" viewBox="0 0 217 48">
            <path d="M0 12C0 5.37258 5.37258 0 12 0H217V48H0V12Z" fill="url(#pattern0)"/>
        </svg>
    </symbol>
    <symbol id="progress-1" viewBox="0 0 32 32">
        <path d="M27.1137 6.3054C26.9447 6.1374 26.7457 6.0529 26.5157 6.0529C26.4012 6.0529 26.1597 6.1469 25.7927 6.3324C25.4252 6.5184 25.0352 6.7254 24.6247 6.9564C24.2132 7.1859 23.7262 7.3939 23.1642 7.5799C22.6027 7.7654 22.0827 7.8594 21.6042 7.8594C21.1622 7.8594 20.7722 7.7754 20.4362 7.6069C19.3217 7.0849 18.3522 6.6954 17.5292 6.4384C16.7062 6.1819 15.8212 6.0529 14.8737 6.0529C13.2377 6.0529 11.3742 6.5849 9.28524 7.6469C8.85424 7.8619 8.54524 8.0284 8.34524 8.1504L8.14674 6.6949C8.59524 6.3054 8.88474 5.7379 8.88474 5.0974C8.88474 3.9239 7.93374 2.9729 6.76024 2.9729C5.58674 2.9729 4.63574 3.9239 4.63574 5.0974C4.63574 5.8629 5.04474 6.5284 5.65174 6.9024L8.52174 27.9474C8.60724 28.5739 9.14324 29.0284 9.75874 29.0284C9.81474 29.0284 9.87174 29.0249 9.92924 29.0174C10.6132 28.9234 11.0922 28.2939 10.9987 27.6099L9.84524 19.1514C11.9382 18.1129 13.7487 17.5894 15.2717 17.5894C15.9182 17.5894 16.5487 17.6859 17.1632 17.8809C17.7782 18.0764 18.2897 18.2884 18.6967 18.5179C19.1037 18.7479 19.5842 18.9609 20.1367 19.1549C20.6902 19.3499 21.2367 19.4474 21.7762 19.4474C23.1392 19.4474 24.7717 18.9339 26.6742 17.9074C26.9132 17.7834 27.0882 17.6614 27.1987 17.5419C27.3092 17.4224 27.3647 17.2524 27.3647 17.0314V6.9029C27.3647 6.6734 27.2812 6.4739 27.1137 6.3054Z"
              fill="#F0145A"/>
    </symbol>
    <symbol id="progress-2" viewBox="0 0 32 32">
        <path d="M17.2321 18.332V17.774C17.2321 17.0935 16.6806 16.542 16.0006 16.542C15.3201 16.542 14.7686 17.0935 14.7686 17.774V18.332C14.7686 19.0125 15.3201 19.564 16.0006 19.564C16.6801 19.564 17.2321 19.0125 17.2321 18.332Z"
              fill="#F0145A"/>
        <path d="M18.0769 19.0136C17.8039 19.9071 16.9814 20.5631 16.0004 20.5631C15.0189 20.5631 14.1964 19.9071 13.9234 19.0136H5.43886C4.90336 19.0136 4.39736 18.8891 3.94336 18.6731V24.3066C3.94336 25.4066 4.84336 26.3066 5.94336 26.3066H26.0564C27.1564 26.3066 28.0564 25.4066 28.0564 24.3066V18.6736C27.6019 18.8896 27.0964 19.0141 26.5609 19.0141H18.0769V19.0136Z"
              fill="#F0145A"/>
        <path d="M26.4775 8.8976H21.677C21.387 7.0846 19.8165 5.6936 17.923 5.6936H14.0765C12.183 5.6936 10.613 7.0846 10.3225 8.8976H5.52247C4.37647 8.8976 3.43896 9.7976 3.43896 10.8976V15.5141C3.43896 16.6186 4.33447 17.5141 5.43897 17.5141H13.829C13.8575 16.9386 14.1045 16.4216 14.495 16.0476C14.507 16.0361 14.521 16.0271 14.5335 16.0161C14.62 15.9366 14.71 15.8616 14.8085 15.7966C14.8435 15.7731 14.8835 15.7571 14.92 15.7361C15.001 15.6896 15.081 15.6411 15.1685 15.6051C15.237 15.5766 15.311 15.5601 15.383 15.5386C15.445 15.5201 15.504 15.4956 15.5685 15.4826C15.708 15.4541 15.8525 15.4391 16 15.4391C16.148 15.4391 16.292 15.4546 16.4315 15.4826C16.4955 15.4956 16.5545 15.5201 16.6165 15.5386C16.6885 15.5601 16.7625 15.5766 16.831 15.6056C16.918 15.6416 16.9975 15.6896 17.0785 15.7361C17.1155 15.7576 17.1555 15.7736 17.191 15.7971C17.2895 15.8616 17.379 15.9366 17.4655 16.0161C17.478 16.0276 17.4925 16.0366 17.5045 16.0486C17.8955 16.4226 18.142 16.9396 18.1705 17.5151H26.5605C27.665 17.5151 28.5605 16.6196 28.5605 15.5151V10.8986C28.561 9.7976 27.6235 8.8976 26.4775 8.8976ZM12.248 8.8976C12.503 8.1271 13.2215 7.5656 14.0765 7.5656H17.923C18.778 7.5656 19.4965 8.1271 19.7515 8.8976H12.248Z"
              fill="#F0145A"/>
    </symbol>
    <symbol id="progress-3" viewBox="0 0 32 32">
        <path d="M16.0971 3.55298C9.25258 3.55298 3.68408 9.12148 3.68408 15.966C3.68408 22.811 9.25258 28.38 16.0971 28.38C22.9416 28.38 28.5101 22.811 28.5101 15.966C28.5106 9.12148 22.9421 3.55298 16.0971 3.55298ZM22.9556 15.0585V15.059L19.3621 17.659L20.7461 21.889C20.7681 21.955 20.7796 22.0255 20.7796 22.0975C20.7796 22.467 20.4806 22.767 20.1111 22.767C19.9641 22.767 19.8291 22.72 19.7191 22.6405L16.0976 20.021L12.4761 22.6405C12.3661 22.72 12.2311 22.767 12.0846 22.767C11.7146 22.767 11.4151 22.4675 11.4151 22.0975C11.4151 22.025 11.4271 21.955 11.4491 21.889L12.8336 17.659L9.24008 15.059V15.0585C9.07208 14.9375 8.96308 14.74 8.96308 14.517C8.96308 14.1475 9.26208 13.8485 9.63208 13.8485H14.0806L15.4581 9.63798C15.5421 9.36448 15.7966 9.16548 16.0981 9.16548C16.3991 9.16548 16.6541 9.36448 16.7376 9.63798L18.1151 13.8485H22.5636C22.9331 13.8485 23.2326 14.1475 23.2326 14.517C23.2321 14.74 23.1231 14.9375 22.9556 15.0585Z"
              fill="#F0145A"/>
    </symbol>


</svg>
